{
	"asset":{
		"generator":"Khronos glTF Blender I/O v5.0.21",
		"version":"2.0"
	},
	"scene":0,
	"scenes":[
		{
			"name":"Scene",
			"nodes":[
				0
			]
		}
	],
	"nodes":[
		{
			"mesh":0,
			"name":"Mesh_0",
			"scale":[
				0.00800000037997961,
				0.00800000037997961,
				0.00800000037997961
			]
		}
	],
	"meshes":[
		{
			"name":"Mesh_0",
			"primitives":[
				{
					"attributes":{
						"POSITION":0,
						"NORMAL":1,
						"TEXCOORD_0":2
					},
					"indices":3
				}
			]
		}
	],
	"accessors":[
		{
			"bufferView":0,
			"componentType":5126,
			"count":195473,
			"max":[
				1799.9080810546875,
				1429.4332275390625,
				1105.426025390625
			],
			"min":[
				-1920.9459228515625,
				-126.44249725341797,
				-1182.80712890625
			],
			"type":"VEC3"
		},
		{
			"bufferView":1,
			"componentType":5126,
			"count":195473,
			"type":"VEC3"
		},
		{
			"bufferView":2,
			"componentType":5126,
			"count":195473,
			"type":"VEC2"
		},
		{
			"bufferView":3,
			"componentType":5125,
			"count":786801,
			"type":"SCALAR"
		}
	],
	"bufferViews":[
		{
			"buffer":0,
			"byteLength":2345676,
			"byteOffset":0,
			"target":34962
		},
		{
			"buffer":0,
			"byteLength":2345676,
			"byteOffset":2345676,
			"target":34962
		},
		{
			"buffer":0,
			"byteLength":1563784,
			"byteOffset":4691352,
			"target":34962
		},
		{
			"buffer":0,
			"byteLength":3147204,
			"byteOffset":6255136,
			"target":34963
		}
	],
	"buffers":[
		{
			"byteLength":9402340,
			"uri":"Sponza.bin"
		}
	]
}
